#!OML:ASF I:\Actors\actors\Patient Classification 2\Patient 1\Session 1\actor1.ASF
:FULLY-SPECIFIED
:DEGREES
138
root -0.495307 18.2206 4.50238 9.87579 -1.565 -2.99198
lowerback 33.0449 -1.95739 -0.570751
upperback 7.10596 -2.60015 0.57462
thorax -9.03275 -1.21306 1.8662
lowerneck -9.90582 -4.20115 -5.79406
upperneck 3.71636 -5.41767 8.08267
head 3.09733 -2.46206 3.08075
rclavicle 4.37326e-015 -1.19271e-014
rhumerus -26.8415 36.195 -85.2858
rradius 143.822
rwrist 19.9965
rhand -9.58591 -43.9871
rfingers 7.12502
rthumb 16.3824 -73.3153
lclavicle 4.37326e-015 -1.19271e-014
lhumerus -32.8696 -41.8675 102.269
lradius 137.596
lwrist -13.1907
lhand -28.4728 -49.0607
lfingers 7.12502
lthumb -1.84259 -19.0889
rfemur -22.6388 0.661244 15.8853
rtibia 31.1947
rfoot -22.2415 -5.68437
rtoes -16.1899
lfemur -30.4813 5.48316 -11.5845
ltibia 42.3662
lfoot -20.3481 3.85793
ltoes -57.3337
139
root -0.481085 18.2214 4.51486 9.89473 -2.11507 -3.10389
lowerback 33.1953 -2.15623 -0.783227
upperback 7.11902 -2.92512 0.569936
thorax -9.0577 -1.36233 2.09732
lowerneck -10.4449 -4.26603 -5.98637
upperneck 3.77493 -5.47508 8.29174
head 3.21813 -2.47293 3.1627
rclavicle 2.18663e-014 2.38542e-015
rhumerus -26.822 36.545 -85.3599
rradius 143.638
rwrist 20.9308
rhand -9.88945 -44.263
rfingers 7.12502
rthumb 16.0901 -73.615
lclavicle 2.18663e-014 2.38542e-015
lhumerus -32.7996 -41.6892 102.315
lradius 137.559
lwrist -12.82
lhand -28.318 -50.002
lfingers 7.12502
lthumb -1.69307 -20.029
rfemur -22.5734 0.879089 15.9454
rtibia 30.9402
rfoot -21.9944 -5.57346
rtoes -16.4211
lfemur -30.3238 5.73298 -11.516
ltibia 42.4061
lfoot -20.4899 3.91358
ltoes -57.1819
140
root -0.467437 18.2245 4.52801 9.96339 -2.61048 -3.21959
lowerback 33.2713 -2.35604 -0.896281
upperback 7.1428 -3.22126 0.535567
thorax -9.04686 -1.50011 2.23127
lowerneck -11.1341 -4.31838 -6.09119
upperneck 3.93086 -5.5195 8.42716
head 3.38706 -2.47381 3.20603
rclavicle 1.11319e-014 -5.56597e-015
rhumerus -26.7307 36.737 -85.3807
rradius 143.545
rwrist 21.2945
rhand -10.105 -44.5291
rfingers 7.12502
rthumb 15.8825 -73.8978
lclavicle 1.11319e-014 -5.56597e-015
lhumerus -32.8706 -41.5415 102.361
lradius 137.725
lwrist -12.317
lhand -28.1382 -49.2292
lfingers 7.12502
lthumb -1.51944 -19.2548
rfemur -22.5522 1.06881 16.0055
rtibia 30.6882
rfoot -21.8083 -5.46067
rtoes -16.6301
lfemur -30.2194 5.95672 -11.4495
ltibia 42.4246
lfoot -20.6502 4.09873
ltoes -57.2115
141
root -0.454823 18.2276 4.54077 10.0538 -3.05202 -3.2932
lowerback 33.358 -2.55117 -0.980555
upperback 7.02723 -3.50621 0.468468
thorax -9.19676 -1.62819 2.31702
lowerneck -11.1977 -4.30608 -6.1041
upperneck 3.80244 -5.49682 8.49573
head 3.35953 -2.46047 3.23057
rclavicle 3.97569e-014 -1.82882e-014
rhumerus -27.1386 37.1656 -85.7692
rradius 143.492
rwrist 22.0061
rhand -10.4313 -44.7967
rfingers 7.12502
rthumb 15.5683 -74.1901
lclavicle 3.97569e-014 -1.82882e-014
lhumerus -33.2331 -41.4812 102.617
lradius 137.835
lwrist -12.3162
lhand -28.084 -49.205
lfingers 7.12502
lthumb -1.46707 -19.2303
rfemur -22.5651 1.23539 16.0107
rtibia 30.4553
rfoot -21.6444 -5.31578
rtoes -16.657
lfemur -30.1511 6.13056 -11.4313
ltibia 42.429
lfoot -20.7902 4.31082
ltoes -57.2315
142
root -0.444655 18.2297 4.55291 10.1357 -3.42454 -3.33306
lowerback 33.4766 -2.71983 -1.13425
upperback 6.74418 -3.77575 0.464261
thorax -9.53686 -1.74154 2.50927
lowerneck -10.4623 -4.14228 -6.0503
upperneck 3.35702 -5.28386 8.37697
head 3.08572 -2.38154 3.21443
rclavicle -7.95139e-016 3.18055e-015
rhumerus -27.6977 37.4361 -86.1068
rradius 143.603
rwrist 21.3157
rhand -10.5682 -44.8308
rfingers 7.12502
rthumb 15.4364 -74.2344
lclavicle -7.95139e-016 3.18055e-015
lhumerus -33.9332 -41.3199 103.175
lradius 137.766
lwrist -12.981
lhand -28.6337 -49.1454
lfingers 7.12502
lthumb -1.99792 -19.175
rfemur -22.5785 1.40488 15.9889
rtibia 30.258
rfoot -21.5502 -5.23244
rtoes -16.9742
lfemur -30.089 6.28047 -11.4401
ltibia 42.4187
lfoot -20.8827 4.44314
ltoes -57.1548
143
root -0.435249 18.2321 4.56503 10.2163 -3.71367 -3.33978
lowerback 33.5234 -2.82999 -1.24443
upperback 6.69483 -3.95131 0.487548
thorax -9.59424 -1.81966 2.66137
lowerneck -10.6127 -3.95786 -5.78118
upperneck 3.09853 -5.02965 8.05194
head 2.99721 -2.26479 3.0877
rclavicle -2.38542e-015 -9.54166e-015
rhumerus -27.5666 37.5539 -86.0119
rradius 143.609
rwrist 21.0868
rhand -10.6077 -44.9682
rfingers 7.12502
rthumb 15.3983 -74.3747
lclavicle -2.38542e-015 -9.54166e-015
lhumerus -33.9042 -41.247 103.228
lradius 137.688
lwrist -13.2857
lhand -28.8172 -49.3138
lfingers 7.12502
lthumb -2.1752 -19.3452
rfemur -22.5975 1.60936 15.9329
rtibia 30.1078
rfoot -21.5621 -5.24049
rtoes -17.3832
lfemur -30.0383 6.42327 -11.4801
ltibia 42.3938
lfoot -20.9524 4.50488
ltoes -57.1363
144
root -0.427135 18.2342 4.57676 10.3126 -3.9465 -3.30779
lowerback 33.5753 -2.91548 -1.3708
upperback 6.61556 -4.09591 0.556958
thorax -9.68322 -1.88174 2.86106
lowerneck -10.7923 -3.72471 -5.77746
upperneck 2.88274 -4.69019 7.9335
head 2.93404 -2.09963 3.07189
rclavicle 1.03368e-014 4.13472e-014
rhumerus -27.2997 37.5234 -85.7394
rradius 143.577
rwrist 20.9408
rhand -10.4856 -45.0081
rfingers 7.12502
rthumb 15.516 -74.4055
lclavicle 1.03368e-014 4.13472e-014
lhumerus -33.8595 -41.0296 103.283
lradius 137.745
lwrist -13.0113
lhand -28.648 -49.6809
lfingers 7.12502
lthumb -2.01179 -19.7106
rfemur -22.6528 1.82205 15.8319
rtibia 30.005
rfoot -21.5518 -5.24592
rtoes -17.3614
lfemur -30.0265 6.58537 -11.5683
ltibia 42.3632
lfoot -20.9891 4.54167
ltoes -57.2516
145
root -0.421026 18.2368 4.58946 10.4071 -4.13821 -3.25289
lowerback 33.6442 -2.9504 -1.44421
upperback 6.48471 -4.16407 0.587429
thorax -9.84511 -1.90641 2.96648
lowerneck -10.9071 -3.53043 -5.72075
upperneck 2.70946 -4.42294 7.92868
head 2.88063 -1.96597 3.07801
rclavicle -1.19271e-014 4.77083e-015
rhumerus -27.2818 37.5119 -85.6613
rradius 143.597
rwrist 21.2943
rhand -10.347 -45.177
rfingers 7.12502
rthumb 15.6495 -74.5641
lclavicle -1.19271e-014 4.77083e-015
lhumerus -33.8595 -40.9737 103.284
lradius 137.775
lwrist -12.7078
lhand -28.6464 -49.9793
lfingers 7.12502
lthumb -2.01023 -20.0091
rfemur -22.7185 1.98061 15.7124
rtibia 29.9543
rfoot -21.4608 -5.21995
rtoes -17.2858
lfemur -30.0323 6.75208 -11.681
ltibia 42.3409
lfoot -21.0027 4.55483
ltoes -57.3815
146
root -0.416299 18.24 4.60398 10.509 -4.29917 -3.20547
lowerback 33.6529 -2.92382 -1.43515
upperback 6.36532 -4.12871 0.596989
thorax -9.98292 -1.88568 2.96457
lowerneck -10.852 -3.38296 -5.47692
upperneck 2.16417 -4.21526 7.46446
head 2.98112 -1.89865 3.23101
rclavicle 1.19271e-014 -3.18055e-015
rhumerus -27.3847 37.4019 -85.6799
rradius 143.627
rwrist 21.341
rhand -10.4333 -45.3881
rfingers 7.12502
rthumb 15.5664 -74.7816
lclavicle 1.19271e-014 -3.18055e-015
lhumerus -33.9302 -41.1271 103.334
lradius 137.726
lwrist -12.8107
lhand -29.0129 -49.7794
lfingers 7.12502
lthumb -2.36419 -19.8127
rfemur -22.8195 2.0674 15.5972
rtibia 29.9801
rfoot -21.3183 -5.07472
rtoes -17.0168
lfemur -30.0673 6.9591 -11.7821
ltibia 42.3418
lfoot -20.987 4.4772
ltoes -57.4105
147
root -0.411671 18.2446 4.61645 10.6428 -4.41501 -3.16823
lowerback 33.5956 -2.87634 -1.32225
upperback 6.28122 -4.03107 0.600387
thorax -10.0658 -1.84054 2.87329
lowerneck -10.932 -3.27567 -5.2479
upperneck 1.88816 -4.07526 7.28211
head 2.87644 -1.83368 3.12962
rclavicle -2.94201e-014 4.77083e-015
rhumerus -27.2496 37.0219 -85.5353
rradius 143.556
rwrist 20.6261
rhand -10.6194 -45.1003
rfingers 7.12502
rthumb 15.3871 -74.5077
lclavicle -2.94201e-014 4.77083e-015
lhumerus -34.0833 -41.3362 103.479
lradius 137.654
lwrist -13.2755
lhand -29.6658 -49.367
lfingers 7.12502
lthumb -2.99473 -19.4083
rfemur -23.016 2.02744 15.4856
rtibia 30.0906
rfoot -21.0269 -4.79523
rtoes -16.5452
lfemur -30.1872 7.18482 -11.8676
ltibia 42.376
lfoot -20.8778 4.30515
ltoes -57.3755
148
root -0.405657 18.2513 4.62516 10.8011 -4.4879 -3.10757
lowerback 33.5523 -2.72065 -1.38402
upperback 6.19592 -3.83278 0.802452
thorax -10.1372 -1.74549 3.04811
lowerneck -11.1582 -3.21454 -5.27691
upperneck 1.64931 -3.96 7.1146
head 2.82384 -1.78028 3.08149
rclavicle -7.95139e-015 -1.74931e-014
rhumerus -27.0758 36.9545 -85.1423
rradius 143.543
rwrist 20.413
rhand -10.6115 -45.2634
rfingers 7.12502
rthumb 15.3947 -74.6702
lclavicle -7.95139e-015 -1.74931e-014
lhumerus -34.103 -41.3415 103.75
lradius 137.577
lwrist -13.3893
lhand -29.8073 -49.5356
lfingers 7.12502
lthumb -3.1314 -19.5788
rfemur -23.3007 1.80669 15.3522
rtibia 30.2755
rfoot -20.52 -4.44681
rtoes -16.261
lfemur -30.385 7.34279 -11.974
ltibia 42.4409
lfoot -20.6864 4.15666
ltoes -57.3912
149
root -0.398651 18.2602 4.63356 10.9611 -4.54891 -3.01213
lowerback 33.5196 -2.61782 -1.31866
upperback 6.0811 -3.67552 0.853157
thorax -10.2611 -1.67036 3.01188
lowerneck -11.1935 -3.03477 -4.98722
upperneck 1.28196 -3.72493 6.82256
head 2.66914 -1.6726 2.93675
rclavicle -9.54166e-015 7.15625e-015
rhumerus -27.0914 37.0032 -85.1794
rradius 143.499
rwrist 20.6616
rhand -10.4974 -45.4588
rfingers 7.12502
rthumb 15.5046 -74.8571
lclavicle -9.54166e-015 7.15625e-015
lhumerus -34.1586 -41.3091 103.727
lradius 137.572
lwrist -13.01
lhand -29.3336 -49.9056
lfingers 7.12502
lthumb -2.67391 -19.9426
rfemur -23.6176 1.51088 15.1754
rtibia 30.5121
rfoot -19.9273 -4.0115
rtoes -15.5488
lfemur -30.6007 7.45207 -12.1181
ltibia 42.5195
lfoot -20.3986 4.2079
ltoes -57.5089
